<?xml version="1.0" standalone="no"?>
<!DOCTYPE svg PUBLIC "-//W3C//DTD SVG 20010904//EN"
 "http://www.w3.org/TR/2001/REC-SVG-20010904/DTD/svg10.dtd">
<svg version="1.0" xmlns="http://www.w3.org/2000/svg"
 width="249.000000pt" height="249.000000pt" viewBox="0 0 249.000000 249.000000"
 preserveAspectRatio="xMidYMid meet">
<metadata>
Created by potrace 1.14, written by Peter Selinger 2001-2017
</metadata>
<g transform="translate(0.000000,249.000000) scale(0.100000,-0.100000)"
fill="#000000" stroke="none">
<path d="M53 1990 c-48 -20 -49 -33 -49 -532 1 -256 3 -468 6 -471 3 -2 142
-74 310 -159 168 -86 385 -197 482 -247 l177 -92 143 74 c144 75 361 186 783
402 217 111 519 266 557 286 14 8 -45 41 -275 158 -567 288 -736 371 -752 371
-9 0 -118 -50 -243 -111 l-226 -112 -140 73 c-78 39 -217 112 -311 160 -449
232 -416 218 -462 200z m190 -229 c40 -21 176 -91 302 -156 127 -65 234 -121
239 -126 8 -7 -576 -303 -614 -311 -12 -3 -14 42 -15 307 -1 171 0 313 2 318
6 11 8 10 86 -32z m1523 -308 c181 -92 339 -172 351 -177 13 -6 23 -13 23 -16
0 -3 -78 -45 -172 -94 -95 -49 -261 -134 -368 -189 -107 -55 -273 -140 -368
-189 -96 -49 -175 -88 -177 -86 -2 2 -5 165 -8 363 l-5 360 191 97 c106 53
195 97 198 98 3 0 154 -75 335 -167z m-876 -110 c1 -5 3 -151 7 -327 l5 -318
-153 80 c-85 44 -232 119 -328 167 l-175 88 315 157 c173 87 317 158 322 159
4 0 7 -2 7 -6z"/>
</g>
</svg>
